<?xml version="1.0" encoding="UTF-8" standalone="no"?>
<svg
   id="Laag_2"
   data-name="Laag 2"
   viewBox="0 0 50.000001 49.999999"
   version="1.1"
   sodipodi:docname="sexybirb.svg"
   width="50"
   height="50"
   inkscape:version="1.4.1 (93de688d07, 2025-03-30)"
   inkscape:export-filename="../smppgc/www/stickies/sexybirb.webp"
   inkscape:export-xdpi="96"
   inkscape:export-ydpi="96"
   xmlns:inkscape="http://www.inkscape.org/namespaces/inkscape"
   xmlns:sodipodi="http://sodipodi.sourceforge.net/DTD/sodipodi-0.dtd"
   xmlns:xlink="http://www.w3.org/1999/xlink"
   xmlns="http://www.w3.org/2000/svg"
   xmlns:svg="http://www.w3.org/2000/svg">
  <defs
     id="defs4">
    <linearGradient
       id="linearGradient361"
       inkscape:collect="always">
      <stop
         style="stop-color:#ff760e;stop-opacity:1;"
         offset="0"
         id="stop361" />
      <stop
         style="stop-color:#f20900;stop-opacity:1;"
         offset="0.5"
         id="stop363" />
      <stop
         style="stop-color:#f20900;stop-opacity:1;"
         offset="1"
         id="stop362" />
    </linearGradient>
    <filter
       style="color-interpolation-filters:sRGB;"
       inkscape:label="Drop Shadow"
       id="filter342"
       x="-0.16107954"
       y="-0.11331495"
       width="1.3221591"
       height="1.2266299">
      <feFlood
         result="flood"
         in="SourceGraphic"
         flood-opacity="0.498039"
         flood-color="rgb(32,31,92)"
         id="feFlood341" />
      <feGaussianBlur
         result="blur"
         in="SourceGraphic"
         stdDeviation="11.533334"
         id="feGaussianBlur341" />
      <feOffset
         result="offset"
         in="blur"
         dx="0.000000"
         dy="0.000000"
         id="feOffset341" />
      <feComposite
         result="comp1"
         operator="in"
         in="flood"
         in2="offset"
         id="feComposite341" />
      <feComposite
         result="comp2"
         operator="over"
         in="SourceGraphic"
         in2="comp1"
         id="feComposite342" />
    </filter>
    <filter
       style="color-interpolation-filters:sRGB;"
       inkscape:label="Drop Shadow"
       id="filter344"
       x="-0.067653152"
       y="-0.10001606"
       width="1.1353063"
       height="1.2000321">
      <feFlood
         result="flood"
         in="SourceGraphic"
         flood-opacity="0.498039"
         flood-color="rgb(32,31,92)"
         id="feFlood342" />
      <feGaussianBlur
         result="blur"
         in="SourceGraphic"
         stdDeviation="11.533334"
         id="feGaussianBlur342" />
      <feOffset
         result="offset"
         in="blur"
         dx="0.000000"
         dy="0.000000"
         id="feOffset342" />
      <feComposite
         result="comp1"
         operator="in"
         in="flood"
         in2="offset"
         id="feComposite343" />
      <feComposite
         result="comp2"
         operator="over"
         in="SourceGraphic"
         in2="comp1"
         id="feComposite344" />
    </filter>
    <filter
       style="color-interpolation-filters:sRGB;"
       inkscape:label="Drop Shadow"
       id="filter346"
       x="-0.11632007"
       y="-0.084594329"
       width="1.2326401"
       height="1.1691887">
      <feFlood
         result="flood"
         in="SourceGraphic"
         flood-opacity="0.498039"
         flood-color="rgb(32,31,92)"
         id="feFlood344" />
      <feGaussianBlur
         result="blur"
         in="SourceGraphic"
         stdDeviation="11.533334"
         id="feGaussianBlur344" />
      <feOffset
         result="offset"
         in="blur"
         dx="0.000000"
         dy="0.000000"
         id="feOffset344" />
      <feComposite
         result="comp1"
         operator="in"
         in="flood"
         in2="offset"
         id="feComposite345" />
      <feComposite
         result="comp2"
         operator="over"
         in="SourceGraphic"
         in2="comp1"
         id="feComposite346" />
    </filter>
    <filter
       style="color-interpolation-filters:sRGB;"
       inkscape:label="Drop Shadow"
       id="filter348"
       x="-0.55348978"
       y="-0.54243905"
       width="2.1069796"
       height="2.0848781">
      <feFlood
         result="flood"
         in="SourceGraphic"
         flood-opacity="0.498039"
         flood-color="rgb(32,31,92)"
         id="feFlood346" />
      <feGaussianBlur
         result="blur"
         in="SourceGraphic"
         stdDeviation="11.533334"
         id="feGaussianBlur346" />
      <feOffset
         result="offset"
         in="blur"
         dx="0.000000"
         dy="0.000000"
         id="feOffset346" />
      <feComposite
         result="comp1"
         operator="in"
         in="flood"
         in2="offset"
         id="feComposite347" />
      <feComposite
         result="comp2"
         operator="over"
         in="SourceGraphic"
         in2="comp1"
         id="feComposite348" />
    </filter>
    <filter
       style="color-interpolation-filters:sRGB;"
       inkscape:label="Drop Shadow"
       id="filter359"
       x="-0.51884688"
       y="-1.0354645"
       width="2.0376938"
       height="3.070929">
      <feFlood
         result="flood"
         in="SourceGraphic"
         flood-opacity="1.000000"
         flood-color="rgb(32,31,92)"
         id="feFlood358" />
      <feGaussianBlur
         result="blur"
         in="SourceGraphic"
         stdDeviation="5.575377"
         id="feGaussianBlur358" />
      <feOffset
         result="offset"
         in="blur"
         dx="0.000000"
         dy="0.000000"
         id="feOffset358" />
      <feComposite
         result="comp1"
         operator="in"
         in="offset"
         in2="flood"
         id="feComposite358" />
      <feComposite
         result="comp2"
         operator="over"
         in="SourceGraphic"
         in2="comp1"
         id="feComposite359" />
    </filter>
    <filter
       style="color-interpolation-filters:sRGB;"
       inkscape:label="Drop Shadow"
       id="filter361"
       x="-0.58542699"
       y="-1.0595206"
       width="2.170854"
       height="3.1190411">
      <feFlood
         result="flood"
         in="SourceGraphic"
         flood-opacity="1.000000"
         flood-color="rgb(32,31,92)"
         id="feFlood359" />
      <feGaussianBlur
         result="blur"
         in="SourceGraphic"
         stdDeviation="5.575377"
         id="feGaussianBlur359" />
      <feOffset
         result="offset"
         in="blur"
         dx="0.000000"
         dy="0.000000"
         id="feOffset359" />
      <feComposite
         result="comp1"
         operator="in"
         in="offset"
         in2="flood"
         id="feComposite360" />
      <feComposite
         result="comp2"
         operator="over"
         in="SourceGraphic"
         in2="comp1"
         id="feComposite361" />
    </filter>
    <linearGradient
       inkscape:collect="always"
       xlink:href="#linearGradient361"
       id="linearGradient362"
       x1="-18.352043"
       y1="101.04175"
       x2="56.421753"
       y2="101.04175"
       gradientUnits="userSpaceOnUse"
       gradientTransform="matrix(0.72858278,0,0,0.29627943,82.820986,-388.53998)" />
    <filter
       style="color-interpolation-filters:sRGB;"
       inkscape:label="Drop Shadow"
       id="filter374"
       x="-0.077868132"
       y="-0.054778054"
       width="1.1557363"
       height="1.1095561">
      <feFlood
         result="flood"
         in="SourceGraphic"
         flood-opacity="1.000000"
         flood-color="rgb(0,0,0)"
         id="feFlood373" />
      <feGaussianBlur
         result="blur"
         in="SourceGraphic"
         stdDeviation="5.575377"
         id="feGaussianBlur373" />
      <feOffset
         result="offset"
         in="blur"
         dx="0.000000"
         dy="0.000000"
         id="feOffset373" />
      <feComposite
         result="comp1"
         operator="in"
         in="flood"
         in2="offset"
         id="feComposite373" />
      <feComposite
         result="comp2"
         operator="over"
         in="SourceGraphic"
         in2="comp1"
         id="feComposite374" />
    </filter>
    <filter
       style="color-interpolation-filters:sRGB;"
       inkscape:label="Drop Shadow"
       id="filter376"
       x="-0.032704493"
       y="-0.048349183"
       width="1.065409"
       height="1.0966984">
      <feFlood
         result="flood"
         in="SourceGraphic"
         flood-opacity="1.000000"
         flood-color="rgb(0,0,0)"
         id="feFlood374" />
      <feGaussianBlur
         result="blur"
         in="SourceGraphic"
         stdDeviation="5.575377"
         id="feGaussianBlur374" />
      <feOffset
         result="offset"
         in="blur"
         dx="0.000000"
         dy="0.000000"
         id="feOffset374" />
      <feComposite
         result="comp1"
         operator="in"
         in="flood"
         in2="offset"
         id="feComposite375" />
      <feComposite
         result="comp2"
         operator="over"
         in="SourceGraphic"
         in2="comp1"
         id="feComposite376" />
    </filter>
    <filter
       style="color-interpolation-filters:sRGB;"
       inkscape:label="Drop Shadow"
       id="filter378"
       x="-0.2675648"
       y="-0.26222272"
       width="1.5351296"
       height="1.5244454">
      <feFlood
         result="flood"
         in="SourceGraphic"
         flood-opacity="1.000000"
         flood-color="rgb(0,0,0)"
         id="feFlood376" />
      <feGaussianBlur
         result="blur"
         in="SourceGraphic"
         stdDeviation="5.575377"
         id="feGaussianBlur376" />
      <feOffset
         result="offset"
         in="blur"
         dx="0.000000"
         dy="0.000000"
         id="feOffset376" />
      <feComposite
         result="comp1"
         operator="in"
         in="flood"
         in2="offset"
         id="feComposite377" />
      <feComposite
         result="comp2"
         operator="over"
         in="SourceGraphic"
         in2="comp1"
         id="feComposite378" />
    </filter>
    <filter
       style="color-interpolation-filters:sRGB;"
       inkscape:label="Drop Shadow"
       id="filter380"
       x="-0.056230772"
       y="-0.040894098"
       width="1.1124615"
       height="1.0817882">
      <feFlood
         result="flood"
         in="SourceGraphic"
         flood-opacity="1.000000"
         flood-color="rgb(0,0,0)"
         id="feFlood378" />
      <feGaussianBlur
         result="blur"
         in="SourceGraphic"
         stdDeviation="5.575377"
         id="feGaussianBlur378" />
      <feOffset
         result="offset"
         in="blur"
         dx="0.000000"
         dy="0.000000"
         id="feOffset378" />
      <feComposite
         result="comp1"
         operator="in"
         in="flood"
         in2="offset"
         id="feComposite379" />
      <feComposite
         result="comp2"
         operator="over"
         in="SourceGraphic"
         in2="comp1"
         id="feComposite380" />
    </filter>
  </defs>
  <sodipodi:namedview
     id="namedview4"
     pagecolor="#505050"
     bordercolor="#eeeeee"
     borderopacity="1"
     inkscape:showpageshadow="0"
     inkscape:pageopacity="0"
     inkscape:pagecheckerboard="0"
     inkscape:deskcolor="#505050"
     inkscape:zoom="16"
     inkscape:cx="4.65625"
     inkscape:cy="19.09375"
     inkscape:current-layer="g4" />
  <g
     id="g4"
     transform="matrix(0.07606275,0,0,0.07606275,8.5020317,1.3139493)">
    <path
       d="m 114.12,640.03 c -3.77,0.28 -7.38,-0.74 -11.01,-1.49 -18.61,-3.85 -54.7,-19.95 -57.76,-41.26 -1.26,-8.78 3.69,-10.34 4.58,-14.98 0.34,-1.76 -1.31,-3.43 -0.38,-5.26 0.6,-1.17 17,-11.77 19.65,-13.43 14.05,-8.76 36.71,-19.36 47.42,-31.58 4.29,-4.89 26.76,-40.73 28.02,-45.98 2.84,-11.8 -1.94,-22.34 4.29,-35.71 15.62,-33.51 35.54,-50.45 61.65,-75.35 11.01,-10.5 23.25,-20.18 34.05,-30.95 13.67,-13.61 16.65,-22.75 35.79,-30.21 0.78,-0.31 2.05,-1.8 2.69,-0.31 -4.36,9.7 -8.05,20.56 -13.21,29.79 -14.46,25.88 -38.77,49.27 -50.98,76.02 -6.77,14.84 -10.69,28.12 -19.4,42.6 -11.11,18.46 -27.22,33.98 -38.65,51.35 -4.43,6.73 -6.66,13.68 -11.38,20.62 -5.95,8.75 -35.39,39.58 -35.39,46.61 v 59.5 z"
       id="path3"
       style="fill:#4a50d9;fill-opacity:1;stroke:none;filter:url(#filter380)" />
    <g
       id="g363"
       style="filter:url(#filter374)">
      <rect
         style="fill:url(#linearGradient362);stroke:none;stroke-width:22.0368;stroke-linecap:round"
         id="rect361"
         width="54.478901"
         height="30.552954"
         x="69.449997"
         y="-373.87985"
         ry="0"
         transform="rotate(90)" />
      <path
         d="m 395.11,46.03 c -5.14,-3.73 -29.6,2.77 -17,8.51 6.77,3.09 15.06,2.92 22,0.48 1.72,9.31 -0.78,18.76 0.03,28.49 0.5,5.97 5.8,30.96 9.44,34.56 3.11,3.09 12.88,7.26 17.32,8.17 15.74,25.62 8.23,49.81 2.52,76.57 -2.69,12.59 -2.92,24.12 -9.12,35.88 -0.45,0.85 -3.79,6.83 -5.17,5.32 -0.61,-4.02 -2.07,-9.23 -3.51,-12.99 -1.09,-2.83 -4.11,-5.29 -4.48,-8.6 -0.59,-5.26 1.85,-15.97 2.02,-21.86 0.37,-12.75 0.8,-31.65 -1.11,-43.98 -0.28,-1.81 -1,-3.37 -2.43,-4.55 -1.82,1.2 -1.42,2.64 -1.55,4.43 -1.55,21.22 -1.07,42.4 0.04,63.55 -29.72,-16.84 -58.29,5.94 -86.89,13.52 -3.35,0.28 -22.74,-9.23 -25.08,-12.03 -2.23,-2.65 0.86,-16.49 1.03,-20.95 0.78,-20.88 0.48,-43.09 -3.53,-63.56 -1.78,-2.88 -3.65,3.2 -3.88,4.15 -4.78,18.98 -3,52.05 -1.06,71.81 0.5,5.12 -3.86,-0.52 -4.78,-2.24 -6.89,-12.99 -7.05,-25.38 -10.09,-38.91 -1.03,-4.58 -3.38,-9.01 -4.41,-13.59 -2.06,-9.18 -0.2,-17.8 0.22,-27.18 6.55,-7.09 14.67,-16.91 24.27,-19.74 17.83,-5.25 22.35,2.06 24.2,-22.8 0.89,-11.9 -0.99,-22.78 4.02,-34.49 6.69,4 15.25,4.07 20.55,-2.01 1.66,-3.29 -6.6,-6.76 -9.17,-6.92 l -6.38,-0.55 c 7.03,-7.81 9.49,-18.05 15.18,-26.83 3.67,-5.67 13.75,-18.43 21.22,-17.68 0.93,0.09 10.06,3.86 10.66,4.44 1.16,1.11 1.64,3.61 2.94,5.06 10.98,12.25 14.96,18.08 21.44,33.56 0.43,1.02 0.8,1.76 0.55,2.93 z m -29.65,41.29 c 1.74,-2.66 1.14,-2.11 2.22,-4.21 2.17,-4.21 7.91,-8.86 3.44,-13.66 -1.57,-0.97 -6.83,2.28 -9.48,2.6 -4.21,0.52 -14.94,-2.5 -16.37,1.64 -1.19,3.47 1.09,29.55 1.94,34.73 0.7,4.29 1.86,11.04 5.58,13.5 3.83,0.99 9.34,-13.12 10.37,-16.35 1.94,-6.08 0.4,-15.37 2.29,-18.26 z"
         id="path1"
         style="fill:#5660ea;fill-opacity:1" />
    </g>
    <path
       d="m 249.69352,269.71885 32.56,-50.98 c 7.94,1.86 20.04,21.3 16.93,27.97 -0.52,1.11 -7.39,8.45 -8.8,9.22 -5.82,3.2 -29.54,11.32 -36.7,13.3 -1.34,0.37 -2.61,0.67 -4.01,0.48 z"
       id="path4"
       style="fill:#4a50d9;fill-opacity:1;filter:url(#filter378)" />
    <path
       d="m 373.92,228.32 c 4.26,-0.14 6.86,0.68 10.68,0.79 2.98,0.09 5.96,-1.2 8.55,-0.7 5.49,1.05 12.58,11.03 13.71,16.38 0.85,4.05 3.8,25.06 1.31,26.78 -4.36,1.16 -9.63,1.78 -13.85,3.15 -11.4,3.71 -23.86,10.7 -35.18,13.82 -18.17,5.02 -42.94,3.48 -60.01,8.99 -7.92,2.56 -42.17,21.68 -48.94,27.06 -11.05,8.79 -21.83,29.84 -32.55,39.45 -26.44,23.71 -56.77,43.88 -79.98,71.02 -11.5,13.44 -19.01,30.96 -31.55,44.45 -15.96,17.17 -71.63,25.51 -94.54,25.54 -2.12,0 -9.47,-1.1 -10.55,-2.44 -1.26,-1.81 -1.02,-4.04 -0.96,-6.12 0.12,-4.27 0.52,-13.07 1.13,-16.91 1.18,-7.47 11.17,-4.98 17.38,-6.62 5.75,-1.52 11.3,-6.3 17.85,-4.74 2.01,0.47 3.39,2.63 5.26,2.81 1.87,0.18 14.9,-7.88 17.36,-9.6 30.4,-21.21 65.92,-51.26 94.56,-75.44 27,-22.8 42.06,-48.85 63.11,-75.89 8.52,-10.94 20.33,-16.57 31.74,-24.26 16.09,-10.84 30.05,-13.69 46,-24 21.69,-14.01 52.73,-32.69 79.47,-33.54 z"
       id="path2"
       style="fill:#4a50d9;fill-opacity:1;stroke:none;filter:url(#filter376)" />
    <path
       style="fill:#ffffff;fill-opacity:1;stroke:none;stroke-width:79.404;stroke-linecap:round;filter:url(#filter361)"
       d="m 318.13,54.000001 c 0,0 10.89473,8.083296 20.55001,-2.01 2.59062,-2.708149 -6.87914,-8.313423 -15.55001,-7.470001 -11.60513,1.12884 -5,9.480001 -5,9.480001 z"
       id="path348"
       sodipodi:nodetypes="cssc" />
    <path
       style="fill:#ffffff;fill-opacity:1;stroke:none;stroke-width:79.404;stroke-linecap:round;filter:url(#filter359)"
       d="m 400.11,55.02 c 0,0 -15.58109,7.24039 -25.23637,-2.852906 -2.59062,-2.708149 6.87914,-8.313423 15.55001,-7.470001 C 402.02877,45.825933 400.11,55.02 400.11,55.02 Z"
       id="path348-9"
       sodipodi:nodetypes="cssc" />
  </g>
</svg>
