<?xml version="1.0" encoding="UTF-8" standalone="no"?>
<!-- Created with Inkscape (http://www.inkscape.org/) -->

<svg
   width="13.229167mm"
   height="13.229167mm"
   viewBox="0 0 13.229167 13.229167"
   version="1.1"
   id="svg1"
   inkscape:version="1.4.3 (0d15f75042, 2025-12-25)"
   sodipodi:docname="smpp_wop.svg"
   xml:space="preserve"
   inkscape:export-filename="../smppgc/www/stickies/wop.webp"
   inkscape:export-xdpi="192"
   inkscape:export-ydpi="192"
   xmlns:inkscape="http://www.inkscape.org/namespaces/inkscape"
   xmlns:sodipodi="http://sodipodi.sourceforge.net/DTD/sodipodi-0.dtd"
   xmlns:xlink="http://www.w3.org/1999/xlink"
   xmlns="http://www.w3.org/2000/svg"
   xmlns:svg="http://www.w3.org/2000/svg"
   xmlns:rdf="http://www.w3.org/1999/02/22-rdf-syntax-ns#"
   xmlns:cc="http://creativecommons.org/ns#"
   xmlns:dc="http://purl.org/dc/elements/1.1/"><sodipodi:namedview
     id="namedview1"
     pagecolor="#ffffff"
     bordercolor="#000000"
     borderopacity="1"
     inkscape:showpageshadow="false"
     inkscape:pageopacity="0.0"
     inkscape:pagecheckerboard="false"
     inkscape:deskcolor="#111111"
     inkscape:document-units="mm"
     showborder="false"
     borderlayer="false"
     inkscape:zoom="5.6568543"
     inkscape:cx="12.109204"
     inkscape:cy="15.467961"
     inkscape:current-layer="layer1"><inkscape:page
       x="0"
       y="0"
       width="13.229167"
       height="13.229167"
       id="page1"
       margin="5.0000005"
       bleed="0" /></sodipodi:namedview><defs
     id="defs1"><linearGradient
       id="linearGradient69"
       inkscape:collect="always"><stop
         style="stop-color:#ffffff;stop-opacity:1;"
         offset="0"
         id="stop69" /><stop
         style="stop-color:#5660ea;stop-opacity:1;"
         offset="1"
         id="stop70" /></linearGradient><linearGradient
       id="linearGradient67"
       inkscape:collect="always"><stop
         style="stop-color:#ffffff;stop-opacity:1;"
         offset="0"
         id="stop67" /><stop
         style="stop-color:#a7aef4;stop-opacity:1;"
         offset="1"
         id="stop68" /></linearGradient><inkscape:path-effect
       effect="fillet_chamfer"
       id="path-effect66"
       is_visible="true"
       lpeversion="1"
       nodesatellites_param="F,0,0,1,0,0,0,1 @ F,0,0,1,0,0,0,1 @ F,0,0,1,0,0,0,1 @ F,0,0,1,0,0,0,1"
       radius="0"
       unit="px"
       method="auto"
       mode="F"
       chamfer_steps="1"
       flexible="false"
       use_knot_distance="true"
       apply_no_radius="true"
       apply_with_radius="true"
       only_selected="false"
       hide_knots="false" /><inkscape:path-effect
       effect="fillet_chamfer"
       id="path-effect65"
       is_visible="true"
       lpeversion="1"
       nodesatellites_param="F,0,0,1,0,0,0,1 @ F,0,0,1,0,0,0,1 @ F,0,0,1,0,0,0,1 @ F,0,0,1,0,0,0,1"
       radius="0"
       unit="px"
       method="auto"
       mode="F"
       chamfer_steps="1"
       flexible="false"
       use_knot_distance="true"
       apply_no_radius="true"
       apply_with_radius="true"
       only_selected="false"
       hide_knots="false" /><inkscape:path-effect
       effect="fillet_chamfer"
       id="path-effect64"
       is_visible="true"
       lpeversion="1"
       nodesatellites_param="F,0,0,1,0,0,0,1 @ F,0,0,1,0,0,0,1 @ F,0,0,1,0,0,0,1 @ F,0,0,1,0,0,0,1"
       radius="0"
       unit="px"
       method="auto"
       mode="F"
       chamfer_steps="1"
       flexible="false"
       use_knot_distance="true"
       apply_no_radius="true"
       apply_with_radius="true"
       only_selected="false"
       hide_knots="false" /><inkscape:path-effect
       effect="fillet_chamfer"
       id="path-effect63"
       is_visible="true"
       lpeversion="1"
       nodesatellites_param="F,0,0,1,0,0,0,1 @ F,0,0,1,0,0,0,1 @ F,0,0,1,0,0,0,1 @ F,0,0,1,0,0,0,1"
       radius="0"
       unit="px"
       method="auto"
       mode="F"
       chamfer_steps="1"
       flexible="false"
       use_knot_distance="true"
       apply_no_radius="true"
       apply_with_radius="true"
       only_selected="false"
       hide_knots="false" /><inkscape:path-effect
       effect="fillet_chamfer"
       id="path-effect62"
       is_visible="true"
       lpeversion="1"
       nodesatellites_param="F,0,0,1,0,0,0,1 @ F,0,0,1,0,0,0,1 @ F,0,0,1,0,0,0,1 @ F,0,0,1,0,0,0,1"
       radius="0"
       unit="px"
       method="auto"
       mode="F"
       chamfer_steps="1"
       flexible="false"
       use_knot_distance="true"
       apply_no_radius="true"
       apply_with_radius="true"
       only_selected="false"
       hide_knots="false" /><inkscape:path-effect
       effect="fillet_chamfer"
       id="path-effect61"
       is_visible="true"
       lpeversion="1"
       nodesatellites_param="F,0,0,1,0,0,0,1 @ F,0,0,1,0,0,0,1 @ F,0,0,1,0,0,0,1 @ F,0,0,1,0,0,0,1"
       radius="0"
       unit="px"
       method="auto"
       mode="F"
       chamfer_steps="1"
       flexible="false"
       use_knot_distance="true"
       apply_no_radius="true"
       apply_with_radius="true"
       only_selected="false"
       hide_knots="false" /><filter
       style="color-interpolation-filters:sRGB;"
       inkscape:label="Drop Shadow"
       id="filter47"
       x="-0.065036194"
       y="-0.28104181"
       width="1.1300723"
       height="1.5619268"><feFlood
         result="flood"
         in="SourceGraphic"
         flood-opacity="0.521569"
         flood-color="rgb(0,0,0)"
         id="feFlood46" /><feGaussianBlur
         result="blur"
         in="SourceGraphic"
         stdDeviation="0.100000"
         id="feGaussianBlur46" /><feOffset
         result="offset"
         in="blur"
         dx="0.000000"
         dy="0.000000"
         id="feOffset46" /><feComposite
         result="comp1"
         operator="in"
         in="flood"
         in2="offset"
         id="feComposite46" /><feComposite
         result="comp2"
         operator="over"
         in="SourceGraphic"
         in2="comp1"
         id="feComposite47" /></filter><filter
       style="color-interpolation-filters:sRGB;"
       inkscape:label="Drop Shadow"
       id="filter52"
       x="-0.041898688"
       y="-0.20195792"
       width="1.0837974"
       height="1.4039158"><feFlood
         result="flood"
         in="SourceGraphic"
         flood-opacity="0.490196"
         flood-color="rgb(0,0,0)"
         id="feFlood51" /><feGaussianBlur
         result="blur"
         in="SourceGraphic"
         stdDeviation="0.200000"
         id="feGaussianBlur51" /><feOffset
         result="offset"
         in="blur"
         dx="0.000000"
         dy="0.000000"
         id="feOffset51" /><feComposite
         result="comp1"
         operator="in"
         in="flood"
         in2="offset"
         id="feComposite51" /><feComposite
         result="comp2"
         operator="over"
         in="SourceGraphic"
         in2="comp1"
         id="feComposite52" /></filter><filter
       style="color-interpolation-filters:sRGB;"
       inkscape:label="Drop Shadow"
       id="filter54"
       x="-0.055492463"
       y="-0.53019588"
       width="1.1110172"
       height="2.0604094"><feFlood
         result="flood"
         in="SourceGraphic"
         flood-opacity="0.490196"
         flood-color="rgb(0,0,0)"
         id="feFlood52" /><feGaussianBlur
         result="blur"
         in="SourceGraphic"
         stdDeviation="0.200000"
         id="feGaussianBlur52" /><feOffset
         result="offset"
         in="blur"
         dx="0.000000"
         dy="0.000000"
         id="feOffset52" /><feComposite
         result="comp1"
         operator="in"
         in="flood"
         in2="offset"
         id="feComposite53" /><feComposite
         result="comp2"
         operator="over"
         in="SourceGraphic"
         in2="comp1"
         id="feComposite54" /></filter><filter
       style="color-interpolation-filters:sRGB;"
       inkscape:label="Drop Shadow"
       id="filter56"
       x="-0.055492464"
       y="-0.53019588"
       width="1.1110172"
       height="2.0604094"><feFlood
         result="flood"
         in="SourceGraphic"
         flood-opacity="0.490196"
         flood-color="rgb(0,0,0)"
         id="feFlood54" /><feGaussianBlur
         result="blur"
         in="SourceGraphic"
         stdDeviation="0.200000"
         id="feGaussianBlur54" /><feOffset
         result="offset"
         in="blur"
         dx="0.000000"
         dy="0.000000"
         id="feOffset54" /><feComposite
         result="comp1"
         operator="in"
         in="flood"
         in2="offset"
         id="feComposite55" /><feComposite
         result="comp2"
         operator="over"
         in="SourceGraphic"
         in2="comp1"
         id="feComposite56" /></filter><filter
       style="color-interpolation-filters:sRGB;"
       inkscape:label="Drop Shadow"
       id="filter58"
       x="-0.061454146"
       y="-0.51444024"
       width="1.1229131"
       height="2.0288811"><feFlood
         result="flood"
         in="SourceGraphic"
         flood-opacity="0.490196"
         flood-color="rgb(0,0,0)"
         id="feFlood56" /><feGaussianBlur
         result="blur"
         in="SourceGraphic"
         stdDeviation="0.200000"
         id="feGaussianBlur56" /><feOffset
         result="offset"
         in="blur"
         dx="0.000000"
         dy="0.000000"
         id="feOffset56" /><feComposite
         result="comp1"
         operator="in"
         in="flood"
         in2="offset"
         id="feComposite57" /><feComposite
         result="comp2"
         operator="over"
         in="SourceGraphic"
         in2="comp1"
         id="feComposite58" /></filter><filter
       style="color-interpolation-filters:sRGB;"
       inkscape:label="Drop Shadow"
       id="filter67"
       x="-0.046750655"
       y="-0.49642289"
       width="1.0935013"
       height="1.9928458"><feFlood
         result="flood"
         in="SourceGraphic"
         flood-opacity="0.490196"
         flood-color="rgb(0,0,0)"
         id="feFlood66" /><feGaussianBlur
         result="blur"
         in="SourceGraphic"
         stdDeviation="0.200000"
         id="feGaussianBlur66" /><feOffset
         result="offset"
         in="blur"
         dx="0.000000"
         dy="0.000000"
         id="feOffset66" /><feComposite
         result="comp1"
         operator="in"
         in="flood"
         in2="offset"
         id="feComposite66" /><feComposite
         result="comp2"
         operator="over"
         in="SourceGraphic"
         in2="comp1"
         id="feComposite67" /></filter><linearGradient
       inkscape:collect="always"
       xlink:href="#linearGradient67"
       id="linearGradient68"
       x1="7.1932092"
       y1="5.8412709"
       x2="6.787158"
       y2="9.9176283"
       gradientUnits="userSpaceOnUse"
       gradientTransform="matrix(1.1732254,0,0,1.1732254,-1.1549731,-1.0639947)" /><linearGradient
       inkscape:collect="always"
       xlink:href="#linearGradient69"
       id="linearGradient70"
       x1="6.8931527"
       y1="8.5245676"
       x2="6.8326974"
       y2="10.356187"
       gradientUnits="userSpaceOnUse" /></defs><g
     inkscape:label="Layer 1"
     inkscape:groupmode="layer"
     id="layer1"><g
       inkscape:label="Layer 1"
       inkscape:groupmode="layer"
       id="layer1-2"
       transform="matrix(0.26458333,0,0,0.26458333,-0.45781568,0)" /><g
       id="g70"
       transform="matrix(0.9736476,0,0,0.9085689,-0.01390518,0.01227359)"><path
         style="fill:#444696;fill-opacity:1;stroke:none;stroke-width:0.56432;stroke-linecap:round;stroke-linejoin:round;stroke-dasharray:none;stroke-opacity:1"
         d="M 1.6858059,5.4895655 C 1.6741636,7.5217006 0.97795843,10.139387 1.2756031,10.515374 1.5732478,10.891362 12.205246,11.515084 12.360932,10.789422 12.516618,10.06376 13.267613,6.993699 12.770417,6.482304 12.27322,5.9709092 1.6858059,5.4895655 1.6858059,5.4895655 Z"
         id="path61" /><path
         style="fill:#e3e4fa;fill-opacity:1;stroke:none;stroke-width:0.251812;stroke-linecap:round;stroke-linejoin:round;stroke-dasharray:none;stroke-opacity:1"
         d="m 9.9784445,7.5117987 c 0.034435,0.1323805 2.6908125,0.3574055 2.8186065,0.2812987 0.127796,-0.076107 0.09207,-0.3943698 0.07716,-0.458393 -0.01491,-0.064023 -2.864719,-0.2926055 -2.8940547,-0.2917798 -0.029337,8.257e-4 -0.03615,0.3364936 -0.00171,0.4688741 z"
         id="path60"
         sodipodi:nodetypes="zzzzz" /><path
         style="display:inline;fill:#4a50d9;fill-opacity:1;stroke:#5660ea;stroke-width:0.234645;stroke-linecap:round;stroke-linejoin:round;stroke-dasharray:none;stroke-opacity:1"
         d="m 0.59771516,6.2994345 c 0,0.027437 0.0137185,0.816255 0.10288951,0.8779886 0.089171,0.061734 5.00041963,0.048015 6.57119623,-0.068593 L 7.2512232,6.4777759 c 0,0 -5.3982586,0.082311 -6.65350804,-0.1783414 z"
         id="path31" /><path
         style="fill:#4a50d9;fill-opacity:1;stroke:#5660ea;stroke-width:0.2;stroke-linecap:round;stroke-linejoin:round;stroke-dasharray:none;stroke-opacity:1;filter:url(#filter47)"
         d="m 6.6787418,6.6725354 c 3.8754652,0.6449218 5.2278552,0.5705078 5.2278552,0.5705078 l -0.01654,-0.644922 C 11.69162,6.6477306 9.0785349,6.4525845 6.6787387,6.0358816 Z"
         id="path32"
         transform="matrix(1.1732254,0,0,1.1732254,-1.1792996,-1.2587789)" /><path
         style="display:inline;fill:#5660ea;fill-opacity:1;stroke:#4a50d9;stroke-width:0.200001;stroke-linecap:round;stroke-linejoin:round;stroke-dasharray:none;stroke-opacity:1;filter:url(#filter58)"
         d="m 11.474271,9.6905479 c 0.132398,0.3526091 0.0099,0.6932391 -0.430495,0.8271181 -0.551287,0.167573 -8.1711203,0.189203 -8.5897287,-0.03293 -0.2579421,-0.13688 -0.4780319,-0.387173 -0.2966085,-0.9648031 3.2758836,0.312688 6.3956927,0.393594 9.3168322,0.170615 z"
         id="path1-0"
         sodipodi:nodetypes="csscc"
         transform="matrix(1.1732254,0,0,1.1732254,-1.1792996,-1.2587789)" /><path
         style="fill:#4a50d9;fill-opacity:1;stroke:#5660ea;stroke-width:0.2;stroke-linecap:round;stroke-linejoin:round;stroke-dasharray:none;stroke-opacity:1;filter:url(#filter56)"
         d="M 2.085437,8.6919504 C 1.4715524,8.5925596 1.4381074,9.3285489 1.8983484,9.3818398 5.2388141,9.7686293 7.2082083,9.8963337 11.673731,9.6507798 12.151499,9.6040083 12.151499,8.9347815 11.662041,8.9608905 7.1609962,9.2009885 5.8772229,9.1218579 2.08544,8.6919504 Z"
         id="path52-9"
         sodipodi:nodetypes="cscscc"
         transform="matrix(1.1732254,0,0,1.1732254,-1.1792996,-1.2587789)" /><path
         style="fill:#e3e4fa;fill-opacity:1;stroke:none;stroke-width:0.251486;stroke-linecap:round;stroke-linejoin:round;stroke-dasharray:none;stroke-opacity:1"
         d="M 1.1565828,7.6160563 C 1.7594126,7.9684648 4.2700919,7.7931101 4.3227082,7.7787769 4.375325,7.7644436 4.3624313,7.6788498 4.3554471,7.5795855 4.3484664,7.4803213 4.3304398,7.4003042 4.2948195,7.3902067 4.2784506,7.3855607 3.6225262,7.4388099 2.9161689,7.408936 2.0854284,7.3738022 1.2303126,7.2514581 1.1639344,7.2559862 c -0.059689,0.00407 -0.077215,0.063754 -0.080082,0.1978935 -0.00286,0.1341398 0.072731,0.1621766 0.07273,0.1621766 z"
         id="path59"
         sodipodi:nodetypes="czzssszc" /><path
         style="fill:url(#linearGradient70);stroke:none;stroke-width:0.480999;stroke-linecap:round;stroke-linejoin:round;stroke-dasharray:none;stroke-opacity:1;filter:url(#filter67)"
         d="m 1.9100414,8.2829855 c 1.7363281,0.1626008 2.6971656,0.00806 3.5258223,0.072688 0.8286568,0.064632 2.0141581,0.3149121 2.6056984,0.1574562 0.5915406,-0.1574562 1.5296224,-0.1856483 2.2076169,-0.092824 0.677995,0.092824 1.308517,0.3219871 1.513086,0.1626008 0.20457,-0.1593866 0.270813,0.3134403 0.270813,0.5426726 0,0.2292321 -0.371037,-0.1646886 -0.371037,-0.1646886 0,0 -0.348743,-0.2376321 -0.517,0.026871 C 10.976783,9.2522652 9.9984578,9.2791559 9.8264271,9.2295465 9.6543964,9.1799371 9.0811648,8.9815341 8.5376559,8.9619356 7.9941472,8.9423379 7.2025718,9.2573325 6.8117806,9.2295465 6.4209892,9.2017605 6.0049065,8.9017857 5.655534,8.9220615 5.3061615,8.9423366 5.073407,8.8900112 4.5674562,8.9507805 4.0615057,9.0115497 3.8545206,8.9306007 3.3288057,8.8514387 2.8030905,8.7722777 2.4462448,8.5324623 2.08544,8.6919505 1.7246351,8.8514387 1.673916,8.346867 1.9100414,8.2829855 Z"
         id="path66"
         sodipodi:nodetypes="cssssscssssssssc"
         transform="matrix(1.1732254,0,0,1.1732254,-1.1792996,-1.2587789)" /><path
         style="fill:#4a50d9;fill-opacity:1;stroke:#5660ea;stroke-width:0.234645;stroke-linecap:round;stroke-linejoin:round;stroke-dasharray:none;stroke-opacity:1"
         d="M 1.2811065,7.6496339 C 0.56088151,7.5330261 0.52164299,8.3965074 1.0616094,8.4590296 4.9807284,8.9128209 7.2912716,9.0626469 12.530336,8.7745569 13.090866,8.7196834 13.090866,7.9345295 12.516621,7.9651612 7.2358812,8.2468503 5.7297258,8.1540123 1.28111,7.6496339 Z"
         id="path52"
         sodipodi:nodetypes="cscscc" /><path
         style="fill:#e3e4fa;fill-opacity:1;stroke:none;stroke-width:0.252694;stroke-linecap:round;stroke-linejoin:round;stroke-dasharray:none;stroke-opacity:1"
         d="M 5.7388026,7.9249584 C 5.8859174,7.9304961 9.3994162,7.6904096 9.423391,7.6801195 9.4473658,7.6698303 9.5263521,7.6200621 9.4993385,7.4776535 9.4723257,7.3352452 9.4583174,7.2826553 9.3720296,7.291688 8.0631192,7.4287041 5.470801,7.3873001 5.4481494,7.5217006 c -0.022652,0.1344004 0.00781,0.28102 0.020183,0.3416443 0.012372,0.060624 0.1233548,0.056078 0.2704702,0.061613 z"
         id="path58"
         sodipodi:nodetypes="zzzszzzz" /><path
         style="fill:url(#linearGradient68);fill-opacity:1;stroke:none;stroke-width:0.56432;stroke-linecap:round;stroke-linejoin:round;stroke-dasharray:none;stroke-opacity:1"
         d="M 0.81460405,5.7360529 C 1.2259793,5.5320852 1.5047812,5.5794872 1.9123909,5.6938146 2.3200004,5.8081419 2.9858483,5.6367002 3.3333178,5.7654892 4.0976863,6.0488013 4.7371549,5.4653851 5.1918589,5.391609 5.646563,5.317833 5.7863955,5.8081428 6.8504991,5.8081426 c 1.1645416,-3e-7 1.4428685,-0.1591558 1.9248231,-0.1197801 0.4819545,0.039376 1.5418518,0.061398 1.9377988,-0.1745261 0.391742,-0.2334176 1.156266,0.2076296 1.473235,0.1561766 0.31697,-0.051453 0.42838,0.229612 0.776182,0.3182529 0.418682,0.1067048 0.328421,0.8337609 -0.02432,0.8604129 C 12.78012,6.8606238 12.736138,6.3138733 12.222012,6.3768987 11.952416,6.4099477 11.958644,6.3209127 11.304589,6.5086576 10.650531,6.6964024 9.9236099,6.8050389 9.3690986,6.6732805 8.8145872,6.5415215 8.8359723,6.2403178 8.2788373,6.5016181 7.7217019,6.7629185 7.691124,7.0119738 7.2615121,6.7933033 6.8319,6.574633 6.4112235,6.482991 5.7863954,6.638199 5.1615674,6.7934069 4.9996445,6.9583153 4.3474599,6.6964019 3.6952748,6.4344886 3.4065459,6.638199 2.8632731,6.8419094 2.3200004,7.0456198 2.0899061,6.945371 1.5975743,6.7270143 1.1052425,6.5086575 0.5047191,6.4400031 0.5047191,6.1240727 c 0,-0.3159304 -0.10148986,-0.1840521 0.30988495,-0.3880198 z"
         id="path67"
         sodipodi:nodetypes="zsszszssssssssssssssz" /><g
         id="g30"
         transform="matrix(1.3326266,0,0,1.4836505,-2.1854343,-0.76353277)"><path
           style="display:inline;fill:#5660ea;fill-opacity:1;stroke:#4a50d9;stroke-width:0.178692;stroke-linecap:round;stroke-linejoin:round;stroke-dasharray:none;stroke-opacity:1"
           d="M 2.6322968,4.2638352 C 2.6066887,3.7127757 2.8977891,2.3484247 6.721432,2.3701275 c 3.823643,0.021706 4.131382,1.3754044 4.159018,1.9222407 0,0 -2.1852491,0.4351527 -4.2852589,0.3722462 C 4.4951812,4.6017079 2.6322968,4.2638352 2.6322968,4.2638352 Z"
           id="path1"
           sodipodi:nodetypes="czczc" /><path
           style="display:inline;fill:#4a50d9;fill-opacity:1;stroke:none;stroke-width:0.42074;stroke-linecap:round;stroke-linejoin:round;stroke-opacity:1"
           d="m 4.7866573,3.6130555 c 0.2338607,0.031312 -0.1637028,0.4562621 -0.1637028,0.4562621 0,0 -0.029232,-0.4786278 0.1637028,-0.4562621 z"
           id="path2" /><use
           id="use2"
           inkscape:spray-origin="#path2"
           xlink:href="#path2"
           transform="matrix(0.92465928,-0.25662685,0.25662685,0.92465928,-1.6417688,1.000667)" /><use
           id="use3"
           inkscape:spray-origin="#path2"
           xlink:href="#path2"
           transform="matrix(-0.76448667,-0.77276086,0.77276086,-0.76448667,6.2156316,10.583639)"
           style="display:inline" /><use
           id="use4"
           inkscape:spray-origin="#path2"
           xlink:href="#path2"
           transform="matrix(-1.0293838,-0.41141526,0.41141526,-1.0293838,11.697095,9.151845)"
           style="display:inline" /><use
           id="use5"
           inkscape:spray-origin="#path2"
           xlink:href="#path2"
           transform="matrix(-0.48600443,0.93984733,-0.93984733,-0.48600443,14.068994,0.21749588)" /><use
           id="use6"
           inkscape:spray-origin="#path2"
           xlink:href="#path2"
           transform="matrix(1.0734535,-0.42772363,0.42772363,1.0734535,-0.67235831,0.81016701)"
           style="display:inline" /><use
           id="use7"
           inkscape:spray-origin="#path2"
           xlink:href="#path2"
           transform="matrix(0.45588513,-0.72346677,0.72346677,0.45588513,2.262007,4.4623006)"
           style="display:inline" /><use
           id="use8"
           inkscape:spray-origin="#path2"
           xlink:href="#path2"
           transform="matrix(0.6458661,-0.64655523,0.64655523,0.6458661,3.3528185,3.6314008)"
           style="display:inline" /><use
           id="use8-4"
           inkscape:spray-origin="#path2"
           xlink:href="#path2"
           transform="matrix(0.6458661,-0.64655523,0.64655523,0.6458661,2.8316812,4.8713779)"
           style="display:inline" /><use
           id="use9"
           inkscape:spray-origin="#path2"
           xlink:href="#path2"
           transform="matrix(0.82913144,-0.36930195,0.5072492,0.71890149,0.55893495,2.9960777)"
           style="display:inline" /><use
           id="use9-1"
           inkscape:spray-origin="#path2"
           xlink:href="#path2"
           transform="matrix(-0.02847486,0.85721568,-0.91034088,-0.10653179,10.55713,0.37242273)"
           style="display:inline" /><use
           id="use10"
           inkscape:spray-origin="#path2"
           xlink:href="#path2"
           transform="matrix(-0.81640532,-0.62959834,0.62959834,-0.81640532,6.9258628,9.6396895)"
           style="display:inline" /><use
           id="use11"
           inkscape:spray-origin="#path2"
           xlink:href="#path2"
           transform="matrix(-0.46561094,0.85680153,-0.85680153,-0.46561094,9.5611226,1.6741083)"
           style="display:inline" /><use
           id="use12"
           inkscape:spray-origin="#path2"
           xlink:href="#path2"
           transform="matrix(-0.23828409,-0.83659642,0.83659642,-0.23828409,5.0452677,8.2179411)" /><use
           id="use13"
           inkscape:spray-origin="#path2"
           xlink:href="#path2"
           transform="matrix(0.79676808,-0.79045251,0.79045251,0.79676808,2.884819,4.4926975)"
           style="display:inline" /><use
           id="use14"
           inkscape:spray-origin="#path2"
           xlink:href="#path2"
           transform="matrix(-0.1589318,-1.0965901,1.0965901,-0.1589318,6.7846177,9.3939906)"
           style="display:inline" /><use
           id="use15"
           inkscape:spray-origin="#path2"
           xlink:href="#path2"
           transform="matrix(0.46873454,0.96441834,-0.96441834,0.46873454,11.043918,-3.0992482)" /><use
           id="use16"
           inkscape:spray-origin="#path2"
           xlink:href="#path2"
           transform="matrix(0.81095882,0.40979903,-0.40979903,0.81095882,5.5354219,-1.5584258)"
           style="display:inline" /><use
           id="use17"
           inkscape:spray-origin="#path2"
           xlink:href="#path2"
           transform="matrix(-0.66147116,-0.65595036,0.65595036,-0.66147116,4.8578,9.0360758)" /><use
           id="use18"
           inkscape:spray-origin="#path2"
           xlink:href="#path2"
           transform="matrix(-0.63411953,0.75203852,-0.75203852,-0.63411953,10.66161,1.8981028)"
           style="display:inline" /><use
           id="use19"
           inkscape:spray-origin="#path2"
           xlink:href="#path2"
           transform="matrix(-0.78863784,0.78915165,-0.78915165,-0.78863784,13.265352,2.2929678)" /><use
           id="use20"
           inkscape:spray-origin="#path2"
           xlink:href="#path2"
           transform="matrix(0.96016918,-0.56567833,0.70647846,0.95685217,0.34725705,3.0395936)" /><use
           id="use21"
           inkscape:spray-origin="#path2"
           xlink:href="#path2"
           transform="matrix(0.18529997,1.1273376,-1.1273376,0.18529997,12.128966,-2.1596353)" /><use
           id="use22"
           inkscape:spray-origin="#path2"
           xlink:href="#path2"
           transform="matrix(0.94698716,-0.08023407,0.08023407,0.94698716,-1.7551398,0.52992214)" /><use
           id="use23"
           inkscape:spray-origin="#path2"
           xlink:href="#path2"
           transform="matrix(-0.86912828,-0.09268171,0.09268171,-0.86912828,7.2391939,7.805442)" /><use
           id="use24"
           inkscape:spray-origin="#path2"
           xlink:href="#path2"
           transform="matrix(0.99917805,-0.09937765,0.09937765,0.99917805,3.0017285,0.48761584)" /><use
           id="use9-2"
           inkscape:spray-origin="#path2"
           xlink:href="#path2"
           transform="matrix(-0.53402652,-0.67891827,0.712634,-0.56096786,9.3269982,9.5851624)"
           style="display:inline" /><use
           id="use9-1-0"
           inkscape:spray-origin="#path2"
           xlink:href="#path2"
           transform="matrix(0.66968274,-0.61127194,0.58698941,0.63400439,1.4204906,4.7987957)"
           style="display:inline" /><use
           id="use20-6"
           inkscape:spray-origin="#path2"
           xlink:href="#path2"
           transform="matrix(-1.1111876,-0.2600414,0.31601308,-1.1125062,9.0314809,9.6571201)" /><use
           id="use24-8"
           inkscape:spray-origin="#path2"
           xlink:href="#path2"
           transform="matrix(-0.99825022,-0.10663534,0.15535581,-0.99340451,9.9977055,8.6498234)" /><use
           id="use25"
           inkscape:spray-origin="#path2"
           xlink:href="#path2"
           transform="matrix(-0.0928241,0.96573303,-0.96573303,-0.0928241,13.36052,-0.48060727)" /><use
           id="use26"
           inkscape:spray-origin="#path2"
           xlink:href="#path2"
           transform="matrix(-0.66730356,0.56427484,-0.56427484,-0.66730356,15.642548,3.9049149)" /><use
           id="use27"
           inkscape:spray-origin="#path2"
           xlink:href="#path2"
           transform="matrix(0.41006408,0.90939081,-0.90939081,0.41006408,9.2745818,-2.8643486)" /><use
           id="use28"
           inkscape:spray-origin="#path2"
           xlink:href="#path2"
           transform="matrix(0.6630722,0.89160705,-0.97192274,0.71186665,6.7539563,-3.2197864)" /><use
           id="use29"
           inkscape:spray-origin="#path2"
           xlink:href="#path2"
           transform="matrix(0.13019794,0.88511375,-0.88511375,0.13019794,8.0269485,-1.475086)"
           style="display:inline" /><use
           id="use30"
           inkscape:spray-origin="#path2"
           xlink:href="#path2"
           transform="matrix(-0.63566418,0.77413015,-0.77413015,-0.63566418,11.333052,1.4815055)" /></g></g></g><metadata
     id="metadata1"><rdf:RDF><cc:Work
         rdf:about=""><dc:creator><cc:Agent><dc:title>ldev105</dc:title></cc:Agent></dc:creator></cc:Work></rdf:RDF></metadata></svg>
